<svg id="Capa_1" enable-background="new 0 0 512 512" height="512" viewBox="0 0 512 512" width="512" xmlns="http://www.w3.org/2000/svg"><g><path d="m480.597 191.093c-2.347-14.09-5.975-27.665-10.686-40.662l-19.94-10.964 6.775-18.252c-8.042-15.104-17.644-29.145-28.689-41.887l-26.761-11.548.278-14.454c-35.958-29.841-81.157-49.464-130.362-52.656l-15 14.791-.212.209-14.788-15c-49.189 3.193-94.382 22.833-130.378 52.921l3.274 11.55-28.788 13.585c-11.212 12.874-21.019 27.065-29.224 42.424l8.525 14.352-21.669 14.78c-5.074 13.773-9.027 28.189-11.536 43.242l-2.928 17.476h17.725c91.465 0 135 11.221 135 75l28.124 15h46.876 46.738l28.262-15c0-63.779 43.535-75 135-75h17.3z" fill="#4d578c"/><path d="m331.212 286c0-63.779 43.535-75 135-75h17.3l-2.915-19.907c-2.347-14.09-5.975-27.665-10.686-40.662l-19.94-10.964 6.775-18.252c-8.042-15.104-17.644-29.145-28.689-41.887l-26.761-11.548.278-14.454c-35.958-29.841-81.157-49.464-130.362-52.656l-15 14.791v285.539h46.738z" fill="#333e73"/><path d="m456.746 121.214c-66.432 4.563-126.458 16.243-166.143 48.437 17.179-33.453 44.669-60.586 79.076-74.696 18.517-7.595 38.232-12.296 58.378-15.628-8.13-9.38-16.956-18.098-26.483-26.003-14.83 3.552-29.306 8.154-43.292 13.887-36.465 14.952-66.465 42.037-87.07 75.677v-142.218c-4.977-.322-9.948-.67-15-.67s-10.023.348-15 .67v141.687c-20.596-33.472-50.742-60.249-87.085-75.146-14.031-5.759-28.539-10.052-43.293-13.619-9.152 7.65-17.639 16.089-25.514 25.135 19.86 3.373 39.023 8.692 57.426 16.229 35.544 14.577 63.84 42.964 80.856 77.963-41.028-34.673-103.495-46.901-167.505-51.768-4.979 9.32-9.417 19.014-13.143 29.132 119.301 7.5 198.259 34.374 198.259 135.718v15h15 15v-14.912c.659-105.114 87.781-129.395 198.699-135.657-3.681-10.153-8.177-19.846-13.166-29.218z" fill="#333e73"/><path d="m271.212 286.088c.659-105.114 87.781-129.395 198.699-135.657-3.68-10.151-8.176-19.845-13.165-29.216-66.432 4.563-126.458 16.243-166.143 48.437 17.179-33.453 44.669-60.586 79.076-74.696 18.517-7.595 38.232-12.296 58.378-15.628-8.13-9.38-16.956-18.098-26.483-26.003-14.83 3.552-29.306 8.154-43.292 13.887-36.465 14.952-66.465 42.037-87.07 75.677v-142.219c-4.977-.322-9.948-.67-15-.67v301h15z" fill="#1f2859"/><path d="m256.212 361h-15v151h15 15v-151z" fill="#ffd5cc"/><path d="m256.212 361h15v151h-15z" fill="#ff9580"/><path d="m256.212 286h-75v30c0 41.353 33.647 75 75 75s75-33.647 75-75v-30z" fill="#ffd5cc"/><path d="m331.212 316v-30h-75v105c41.353 0 75-33.647 75-75z" fill="#ff9580"/></g></svg>